<?xml version="1.0" encoding="UTF-8"?>
<svg overflow="hidden" viewBox="0 0 945 302" xmlns="http://www.w3.org/2000/svg" xmlnsXlink="http://www.w3.org/1999/xlink">
<defs>
<clipPath id="a">
<rect width="945" height="302"/>
</clipPath>
</defs>
<g clip-path="url(#a)">
<rect width="945" height="301.61" fill="#fff"/>
<a href="../packages/contracts">
<rect x="764.5" y="116.35" width="106" height="70.909" fill="#F3F3F3" stroke="#B7B7B7" stroke-dasharray="4.00071 3.00053" stroke-linejoin="round" stroke-miterlimit="10" stroke-width="1.0002"/>
</a>
<a href="../packages/client-sdk">
<rect x="152.5" y="116.35" width="127" height="70.909" fill="#F3F3F3" stroke="#B7B7B7" stroke-dasharray="4.00071 3.00053" stroke-linejoin="round" stroke-miterlimit="10" stroke-width="1.0002"/>
</a>
<a href="../packages/paymaster">
<rect x="152.5" y="208.23" width="127" height="50.935" fill="#F3F3F3" stroke="#B7B7B7" stroke-dasharray="4.00071 3.00053" stroke-linejoin="round" stroke-miterlimit="10" stroke-width="1.0002"/>
</a>
<a href="../packages/client">
<rect x="301.5" y="116.35" width="343" height="70.909" fill="#F3F3F3" stroke="#B7B7B7" stroke-dasharray="4.00071 3.00053" stroke-linejoin="round" stroke-miterlimit="10" stroke-width="1.0002"/>
</a>
<rect x="55.5" y="139.32" width="71" height="24.968" fill="#eee" stroke="#595959" stroke-linejoin="round" stroke-miterlimit="10" stroke-width="1.0002"/>
<text transform="matrix(1 0 0 .99872 83.38 154)" font-family="Arial,Arial_MSFontService,sans-serif" font-size="8" font-weight="400">App</text>
<a href="../packages/client-sdk/useroperation">
<rect x="175.5" y="139.32" width="80" height="24.968" fill="#eee" stroke="#595959" stroke-linejoin="round" stroke-miterlimit="10" stroke-width="1.0002"/>
<text transform="matrix(1 0 0 .99872 188.94 154)" font-family="Arial,Arial_MSFontService,sans-serif" font-size="8" font-weight="400">UserOperation</text>
</a>
<path d="m126.5 151.81h42.601v0.999l-42.601-1e-3zm41.267-3.497 8.002 3.996-8.002 3.996z" fill="#595959"/>
<rect x="671.5" y="139.32" width="79" height="24.968" fill="#eee" stroke="#595959" stroke-linejoin="round" stroke-miterlimit="10" stroke-width="1.0002"/>
<text transform="matrix(1 0 0 .99872 691.99 154)" font-family="Arial,Arial_MSFontService,sans-serif" font-size="8" font-weight="400">EntryPoint</text>
<a href="../packages/paymaster">
<rect x="176.5" y="221.22" width="79" height="23.969" fill="#eee" stroke="#595959" stroke-linejoin="round" stroke-miterlimit="10" stroke-width="1.0002"/>
<text transform="matrix(1 0 0 .99872 196.26 236)" font-family="Arial,Arial_MSFontService,sans-serif" font-size="8" font-weight="400">Paymaster</text>
</a>
<a href="../packages/client">
<rect x="326.5" y="139.32" width="79" height="24.968" fill="#eee" stroke="#595959" stroke-linejoin="round" stroke-miterlimit="10" stroke-width="1.0002"/>
<text transform="matrix(1 0 0 .99872 355.18 154)" font-family="Arial,Arial_MSFontService,sans-serif" font-size="8" font-weight="400">Client</text>
</a>
<a href="../packages/client/">
<rect x="540.5" y="139.32" width="79" height="24.968" fill="#eee" stroke="#595959" stroke-linejoin="round" stroke-miterlimit="10" stroke-width="1.0002"/>
<text transform="matrix(1 0 0 .99872 560.9 154)" font-family="Arial,Arial_MSFontService,sans-serif" font-size="8" font-weight="400">Bundler(s)</text>
<path d="m437.35 146.62c-1.012-3.604 4.2-6.924 11.643-7.414 3.016-0.198 6.082 0.099 8.708 0.844 2.782-2.541 9.285-3.506 14.523-2.157 0.916 0.236 1.757 0.535 2.496 0.888 2.167-2.106 7.446-2.961 11.79-1.911 1.203 0.291 2.251 0.712 3.066 1.229 3.493-1.991 9.666-2.237 13.787-0.549 1.732 0.709 2.899 1.688 3.301 2.768 5.724 0.756 9.1 3.621 7.541 6.398-0.131 0.234-0.295 0.463-0.491 0.685 4.59 2.894 3.466 7.042-2.51 9.265-1.86 0.692-4.058 1.14-6.38 1.301-0.051 3.114-5.309 5.618-11.743 5.593-2.15-8e-3 -4.253-0.304-6.076-0.855-2.177 3.49-9.768 5.464-16.955 4.407-3.012-0.443-5.615-1.38-7.364-2.651-7.359 2.15-16.911 0.994-21.335-2.583-0.056-0.045-0.111-0.09-0.165-0.136-4.816 0.273-9.178-1.392-9.744-3.718-0.301-1.24 0.544-2.481 2.31-3.393-4.17-1.189-5.571-3.799-3.128-5.829 1.408-1.172 3.88-1.946 6.653-2.086z" fill="#eee" fill-rule="evenodd" stroke="#595959" stroke-linejoin="round" stroke-miterlimit="10" stroke-width="1.0002"/>
<path d="m438.95 155.09c-1.78 0.067-3.56-0.132-5.101-0.571m9.602 6.822c-0.716 0.138-1.466 0.23-2.232 0.273m21.465 2.73c-0.539-0.391-0.989-0.809-1.345-1.247m26.214-1.862c-0.079 0.464-0.259 0.922-0.537 1.368m11.215-9.823c4.037 0.952 6.584 2.941 6.548 5.114m8.897-10.561c-0.654 0.74-1.652 1.397-2.916 1.918m-4.081-9.033c0.112 0.299 0.163 0.602 0.154 0.906m-18.774-1.962c0.38-0.418 0.883-0.807 1.494-1.155m-15.464 1.705c0.155-0.345 0.398-0.68 0.723-0.996m-17.119 1.334c0.951 0.27 1.83 0.595 2.618 0.967m-22.501 6.628c-0.207-0.333-0.36-0.672-0.457-1.017" fill="none" fill-rule="evenodd" stroke="#595959" stroke-linejoin="round" stroke-miterlimit="10" stroke-width="1.0002"/>
<text transform="matrix(1 0 0 .99872 452.85 154)" font-family="Arial,Arial_MSFontService,sans-serif" font-size="8" font-weight="400">mempool</text>
</a>
<path d="m405.5 151.81h17.62v0.998h-17.62zm16.286-3.497 8.002 3.996-8.002 3.996z" fill="#595959"/>
<path d="m516.5 151.81h17.431v0.998h-17.431zm16.097-3.497 8.002 3.996-8.002 3.996z" fill="#595959"/>
<path d="m255.5 151.81h63.959v0.999l-63.959-1e-3zm62.625-3.497 8.002 3.996-8.002 3.996z" fill="#595959"/>
<rect x="175.5" y="44.443" width="80" height="43.944" fill="#eee" stroke="#595959" stroke-linejoin="round" stroke-miterlimit="10" stroke-width="1.0002"/>
<text transform="matrix(1 0 0 .99872 206.62 60)" font-family="Arial,Arial_MSFontService,sans-serif" font-weight="400">User <tspan x="-17.003" y="9.01152" font-size="8">Authentication </tspan><tspan x="-4.9142" y="19.0243" font-size="8">Method</tspan></text>
<a href="../packages/contracts/paymaster">
<rect x="777.5" y="155.3" width="80" height="23.969" fill="#eee" stroke="#595959" stroke-linejoin="round" stroke-miterlimit="10" stroke-width="1.0002"/>
<text transform="matrix(1 0 0 .99872 798.05 165)" font-family="Arial,Arial_MSFontService,sans-serif" font-size="8" font-weight="400">Paymaster <tspan x="4.00073" y="9.01152" font-size="8">Contract</tspan></text>
</a>
<a href="packages/contracts/wallet">
<rect x="777.5" y="124.34" width="80" height="23.969" fill="#eee" stroke="#595959" stroke-linejoin="round" stroke-miterlimit="10" stroke-width="1.0002"/>
<text transform="matrix(1 0 0 .99872 789.8 139)" font-family="Arial,Arial_MSFontService,sans-serif" font-size="8" font-weight="400">Wallet Contract</text>
</a>
<path d="m619.5 151.81h44.585v0.999l-44.585-1e-3zm43.252-3.497 8.001 3.996-8.001 3.996z" fill="#595959"/>
<path transform="matrix(1.0013 -1.2246e-16 -1.2262e-16 -1 750.5 151.62)" d="m0.24659-0.43433 21.14 12.002-0.4932 0.8686-21.14-12.002zm21.708 8.3044 4.9765 7.4201-8.922-0.4709z" fill="#595959"/>
<path d="m750.75 151.87 21.167 12.002-0.494 0.869-21.167-12.003zm21.735 8.304 4.983 7.42-8.933-0.471z" fill="#595959"/>
<path transform="matrix(1.8393e-16 1 1.0013 -1.837e-16 91.5 164.29)" d="m0.038306-0.49798 6.4917 0.49936 6.5612 1.446 6.4253 2.2638 6.2991 3.1453 6.0368 3.8328 5.7853 4.587 5.4648 5.2107 5.1447 5.7073 4.7086 6.2123 4.2074 6.7155 3.7621 7.0203 3.1406 7.4065 2.5724 7.5874 1.885 7.783 1.2437 9.244-0.99 0.1329-1.2245-9.142-1.8602-7.6973-2.5461-7.5183-3.1014-7.3245-3.7283-6.9619-4.1569-6.6424-4.6544-6.1468-5.0922-5.6532-5.3962-5.151-5.7001-4.5264-5.9478-3.7824-6.1849-3.0968-6.3085-2.2304-6.4221-1.4254-6.4917-0.49936zm73.168 77.224-3.645 8.1571-4.3387-7.8102z" fill="#595959"/>
<path transform="matrix(-6.1311e-17 -1 -1.0013 6.1232e-17 215.82 221.74)" d="m0-0.49945h10.549l4.8752 0.062461 4.363-4.1e-5 3.6912 0.062492 2.8005-7.2e-5 1.8892 0.062698 0.6076-2.78e-4h0.6242l1.8892 0.062698 2.7923-2.77e-4 3.6912 0.062491 4.2985-7.1e-5 4.8752 0.062461 3.84-0.021977 0.0057 0.99888-3.8585 0.021911-4.8624-0.062379-4.3154-7.2e-5 -3.6743-0.062348-2.8256-2.77e-4 -1.8559-0.062143h-0.6242l-0.6409-2.77e-4 -1.8559-0.062143-2.8174-7.2e-5 -3.6743-0.062348-4.3758-4.1e-5 -4.8624-0.062379h-10.549zm49.435-3.1359 8.0138 3.95-7.9683 4.0411z" fill="#595959"/>
<path d="m91.001 139.43 0.5-6.866 1.3835-6.867 2.3301-6.743 3.1469-6.545 3.8352-6.346 4.526-6.0943 5.154-5.7773 5.784-5.3402 6.215-4.9547 6.658-4.4564 7.036-3.8921 7.349-3.3262 7.601-2.6998 7.729-2.0101 9.201-1.2555 0.135 0.9898-9.084 1.2324-7.646 1.9847-7.524 2.6684-7.276 3.2903-6.964 3.848-6.592 4.4073-6.16 4.9076-5.716 5.2712-5.096 5.7079-4.474 6.015-3.7898 6.263-3.1031 6.438-2.2949 6.615-1.3664 6.741-0.5 6.866zm76.981-76.601 8.194 3.5844-7.787 4.3964z" fill="#595959"/>
<path d="m215 132.66v-2.703-4.307l0.062-3.878v-3.238-2.497-1.623-0.562-0.561-1.623-2.497-3.308-3.808-4.307l1e-3 -9.3642 1 1e-4v9.3641 4.307 3.808 3.308 2.497 1.623 0.561 0.562 1.623 2.497l-1e-3 3.254-0.062 3.862v4.307 2.703zm4.501-1.331-4.001 7.991-4.001-7.991z" fill="#595959"/>
<a fill="#1679EF" href="../packages/client-sdk">
<text transform="matrix(1 0 0 .99872 151.84 112)" font-family="Arial,Arial_MSFontService,sans-serif" font-size="8" font-weight="700">Client SDK</text>
<path transform="matrix(1.0013 0 0 1 151.84 104.44)" d="m0 8.9885h20.474 20.474v0.99872h-20.474-20.474z" fill-rule="evenodd"/>
</a>
<a href="../packages/paymaster">
<text transform="matrix(1 0 0 .99872 151.84 205)" fill="#1679EF" font-family="Arial,Arial_MSFontService,sans-serif" font-size="8" font-weight="700">Paymaster</text>
</a>
<path transform="matrix(1.0013 0 0 1 151.84 196.75)" d="m0 8.9885h20.474 20.474v0.99872h-20.474-20.474z" fill="#1679EF" fill-rule="evenodd"/>
<a href="../packages/client">
<text transform="matrix(1 0 0 .99872 301.35 112)" fill="#1679EF" font-family="Arial,Arial_MSFontService,sans-serif" font-size="8" font-weight="700">Client</text>
</a>
<path transform="matrix(1.0013 0 0 1 301.35 104.44)" d="m0 8.9885h21.972v0.99872h-21.972z" fill="#1679EF" fill-rule="evenodd"/>
<text transform="matrix(1 0 0 .99872 76.881 82)" font-family="Arial,Arial_MSFontService,sans-serif" font-size="8" font-weight="400">Signature <tspan x="0" y="9.01152" font-size="8">Request</tspan><tspan x="0" y="135.173" font-size="8">Signature </tspan><tspan x="0" y="144.184" font-size="8">Request</tspan><a href="../packages/contracts">
<tspan x="687.261" y="30.0384" fill="#1679EF" font-size="8" font-weight="700">Contracts</tspan>
</a></text>
<path transform="matrix(1.0013 0 0 1 764.14 104.44)" d="m0 8.9885h18.976 18.976v0.99872h-18.976-18.976z" fill="#1679EF" fill-rule="evenodd"/>
<text transform="matrix(1 0 0 .99872 230.42 105)" font-family="Arial,Arial_MSFontService,sans-serif" font-size="8" font-weight="400">Signature<tspan x="0" y="95.1216" font-size="8">Signature</tspan></text>
</g>
</svg>
